<svg width="64" height="64" viewBox="0 0 64 64" fill="none" xmlns="http://www.w3.org/2000/svg">
<path d="M12.6016 56.9257V8.11999C12.6016 7.97279 12.6306 7.82702 12.687 7.69104C12.7433 7.55506 12.826 7.43153 12.9301 7.32751C13.0343 7.22349 13.1579 7.14102 13.294 7.08482C13.43 7.02863 13.5758 6.9998 13.7231 7H58.815C59.112 7 59.3969 7.118 59.6069 7.32804C59.817 7.53808 59.935 7.82295 59.935 8.11999V56.8987L12.6016 56.9257Z" fill="#002D5B"/>
<path d="M54.9092 19.4698H40.958V33.4209H54.9092V19.4698Z" fill="#FFD600"/>
<path d="M38.1693 19.4698H17.4788V21.9257H38.1693V19.4698Z" fill="#3C557F"/>
<path d="M38.1693 25.2181H17.4788V27.674H38.1693V25.2181Z" fill="#3C557F"/>
<path d="M38.1693 30.9666H17.4788V33.4225H38.1693V30.9666Z" fill="#3C557F"/>
<path d="M54.9092 36.7135H17.4788V39.1694H54.9092V36.7135Z" fill="#3C557F"/>
<path d="M54.9092 42.4619H17.4788V44.9178H54.9092V42.4619Z" fill="#3C557F"/>
<path d="M54.9092 48.2087H17.4788V50.6646H54.9092V48.2087Z" fill="#3C557F"/>
<path d="M54.9092 13.2596H17.4788V15.7155H54.9092V13.2596Z" fill="#3C557F"/>
<path d="M12.6 56.9377V38.1873H5L12.6 56.9377Z" fill="#3C557F"/>
</svg>
