<svg xmlns="http://www.w3.org/2000/svg" viewBox="0 0 332.78 332.63"><defs><style>.cls-1{fill:#ffd000;}.cls-2{fill:#002d5b;}.cls-3{fill:#4d6988;}</style></defs><g id="Layer_2" data-name="Layer 2"><g id="Navy_icon_RGB_transparent_background_" data-name="Navy icon RGB (transparent background)"><circle class="cls-1" cx="167.12" cy="165.39" r="48.64"/><polygon class="cls-2" points="86.73 211.31 17.57 211.31 17.57 245.9 62.28 245.9 0 308.18 24.45 332.63 86.73 270.35 86.73 315.06 121.31 315.06 121.31 245.9 121.31 211.31 86.73 211.31"/><path class="cls-3" d="M167.12,53.71A111.67,111.67,0,0,0,60.89,199.84h30a83.76,83.76,0,1,1,41.89,41.83v30A111.68,111.68,0,1,0,167.12,53.71Z"/><path class="cls-2" d="M166.78,0A166.11,166.11,0,0,0,4.24,199.84H31.91A140.05,140.05,0,0,1,27.78,166,139,139,0,0,1,265.07,67.71,139,139,0,0,1,166.78,305a140.45,140.45,0,0,1-34-4.16v27.67A166,166,0,1,0,166.78,0Z"/></g></g></svg>