<?xml version="1.0" encoding="utf-8"?>
<!-- Generator: Adobe Illustrator 26.0.1, SVG Export Plug-In . SVG Version: 6.00 Build 0)  -->
<svg version="1.1" id="Navy_icon_-Transparent_background"
	 xmlns="http://www.w3.org/2000/svg" xmlns:xlink="http://www.w3.org/1999/xlink" x="0px" y="0px" viewBox="0 0 482.5 438.2"
	 style="enable-background:new 0 0 482.5 438.2;" xml:space="preserve">
<style type="text/css">
	.st0{fill:#002D5B;}
	.st1{fill:#FED600;}
</style>
<g>
	<rect x="234.9" class="st0" width="14.3" height="22.1"/>
	<polygon class="st0" points="306.5,438.2 229.8,438.2 229.8,378.9 252.8,378.9 252.8,415.3 283.6,415.3 283.6,378.9 306.5,378.9 	
		"/>
	<rect x="229.9" y="355.8" class="st1" width="23" height="23.1"/>
	<rect x="234.4" y="233.8" class="st0" width="14" height="122"/>
	<path class="st0" d="M239.3,26.3c-45.9,3.6-116.1,97-116.1,207.4h-4.1c0-52.9,15.2-104.7,43.6-149.3c20.4-31.6,44.6-53.4,66-60.1
		C115.6,30.4,22.6,118.2,0,233.7h239.3V26.3z"/>
	<path class="st0" d="M364.8,233.7h-4.1c0-111.5-71.5-205.7-117.4-207.5v207.5h239.1c-22.5-115-114.7-202.5-227-209.3
		C302.4,39.8,364.8,129.3,364.8,233.7z"/>
</g>
</svg>
