<?xml version="1.0" encoding="utf-8"?>
<!-- Generator: Adobe Illustrator 26.0.1, SVG Export Plug-In . SVG Version: 6.00 Build 0)  -->
<svg version="1.1" id="Navy_icon_-Transparent_background"
	 xmlns="http://www.w3.org/2000/svg" xmlns:xlink="http://www.w3.org/1999/xlink" x="0px" y="0px" viewBox="0 0 333 332.8"
	 style="enable-background:new 0 0 333 332.8;" xml:space="preserve">
<style type="text/css">
	.st0{fill:#002855;}
	.st1{fill:#FFD600;}
</style>
<g>
	<path class="st0" d="M291.8,84.1v23c32.7,69.2,3.1,151.8-66.1,184.5s-151.8,3.1-184.5-66.1S38,73.7,107.3,41
		c37.8-17.9,81.7-17.7,119.4,0.5h22.6V22.1C169.5-23.6,67.8,3.9,22.1,83.6S3.9,265,83.6,310.7s181.4,18.2,227.1-61.5
		c29.3-51.1,29.4-113.9,0.3-165.1H291.8z"/>
	<polygon class="st1" points="333,47.2 286.1,47.2 286.1,0.3 254.9,0.3 254.9,47.2 208,47.2 208,78.5 254.9,78.5 254.9,125.4 
		286.1,125.4 286.1,78.5 333,78.5 	"/>
	<path class="st0" d="M133.6,189.8c4.8,4.6,10.5,8.1,16.8,10.3c5.9,2.2,12,3.3,18.3,3.4c1.4,0,2.9-0.1,4.3-0.4
		c1.5-0.2,2.9-0.8,4.2-1.5c1.2-0.7,2.3-1.6,3.1-2.8c0.9-1.3,1.3-2.9,1.2-4.5c0-3.2-1.9-5.7-5.7-7.5c-4.4-2.1-9-3.9-13.6-5.5
		c-4.7-1.6-9.4-3.4-14.3-5.4c-4.8-1.9-9.4-4.5-13.5-7.6c-4.1-3.1-7.6-7-10.2-11.4c-2.7-4.5-4-10-4-16.5c-0.1-5.2,0.9-10.4,2.8-15.2
		c1.8-4.3,4.4-8.2,7.7-11.4c3.3-3.2,7.1-5.8,11.3-7.8c4.4-2,9.1-3.5,13.8-4.4V84.6h23.5v16.9c5.9,0.8,11.7,2.4,17.2,4.7
		c5.6,2.4,10.7,5.6,15.2,9.6l-17.9,23.5c-3.5-3-7.6-5.3-11.9-6.9c-4.1-1.6-8.4-2.4-12.7-2.5c-1.7,0-3.4,0.1-5.1,0.3
		c-1.7,0.2-3.4,0.6-5,1.3c-1.5,0.6-2.8,1.6-3.9,2.8c-1.1,1.4-1.7,3.2-1.6,5c0,1.6,0.5,3.2,1.6,4.4c1.3,1.3,2.7,2.4,4.4,3.3
		c2.1,1.1,4.2,2,6.4,2.8c2.4,0.9,4.9,1.7,7.6,2.5c4.5,1.5,9.2,3.1,14.1,5.1c4.8,1.9,9.4,4.4,13.5,7.5c4.1,3.1,7.6,7,10.1,11.5
		c2.7,4.7,4,10.4,4,17.3c0.1,4.9-0.9,9.8-3,14.2c-1.9,4.1-4.6,7.8-7.9,10.9c-3.4,3.2-7.2,5.8-11.4,7.9c-4.4,2.1-9,3.6-13.7,4.6V251
		h-23.4v-18.9c-7.6-0.8-15-2.6-22.1-5.5c-7.1-2.8-13.6-7.1-19.1-12.4L133.6,189.8z"/>
</g>
</svg>
