<?xml version="1.0" encoding="utf-8"?>
<!-- Generator: Adobe Illustrator 26.0.1, SVG Export Plug-In . SVG Version: 6.00 Build 0)  -->
<svg version="1.1" id="Navy_icon_-_Transparent_background"
	 xmlns="http://www.w3.org/2000/svg" xmlns:xlink="http://www.w3.org/1999/xlink" x="0px" y="0px" viewBox="0 0 333.3 362"
	 style="enable-background:new 0 0 333.3 362;" xml:space="preserve">
<style type="text/css">
	.st0{fill:#FFD600;}
	.st1{fill:#002855;}
	.st2{fill:none;}
</style>
<g>
	<rect x="270.7" y="55" class="st0" width="62.4" height="62.4"/>
	<polygon class="st1" points="232.1,103.2 232.1,116.6 261.7,116.6 176.8,201.5 143.7,158.5 64.9,237.3 74.4,246.7 142.4,178.7 
		175.5,221.7 271.1,126 271.1,155.6 284.5,155.6 284.5,103.2 	"/>
	<polygon class="st1" points="333.3,333.3 0,333.3 0,0 21.3,0 21.3,312 333.3,312 	"/>
	<path class="st0" d="M8.4,362H0v-8.3h8.4V362z M37.9,353.7h-8.4v8.3h8.4V353.7z M67.4,353.7h-8.4v8.3h8.4V353.7z M97,353.7h-8.3
		v8.3H97L97,353.7z M126.5,353.7h-8.4v8.3h8.4V353.7z M156.1,353.7h-8.4v8.3h8.4V353.7z M185.6,353.7h-8.4v8.3h8.4L185.6,353.7z
		 M215.2,353.7h-8.4v8.3h8.4V353.7z M244.7,353.7h-8.4v8.3h8.3L244.7,353.7z M274.2,353.7h-8.4v8.3h8.4V353.7z M303.8,353.7h-8.4
		v8.3h8.4V353.7z M333.3,353.7H325v8.3h8.4V353.7z"/>
	<rect y="290.7" class="st1" width="21.3" height="21.3"/>
	<rect x="21.3" y="290.7" class="st2" width="21.3" height="21.3"/>
</g>
</svg>
